<?xml version="1.0" encoding="UTF-8" standalone="no"?>
<!DOCTYPE svg PUBLIC "-//W3C//DTD SVG 1.1//EN"
 "http://www.w3.org/Graphics/SVG/1.1/DTD/svg11.dtd">
<!-- Generated by graphviz version 2.43.0 (0)
 -->
<!-- Title: include/mcpp/block.h Pages: 1 -->
<svg width="166pt" height="140pt"
 viewBox="0.00 0.00 165.50 140.00" xmlns="http://www.w3.org/2000/svg" xmlns:xlink="http://www.w3.org/1999/xlink">
<g id="graph0" class="graph" transform="scale(1 1) rotate(0) translate(4 136)">
<title>include/mcpp/block.h</title>
<polygon fill="white" stroke="transparent" points="-4,4 -4,-136 161.5,-136 161.5,4 -4,4"/>
<!-- Node1 -->
<g id="node1" class="node">
<title>Node1</title>
<g id="a_node1"><a xlink:title="BlockType class.">
<polygon fill="#bfbfbf" stroke="black" points="0.5,-112.5 0.5,-131.5 120.5,-131.5 120.5,-112.5 0.5,-112.5"/>
<text text-anchor="middle" x="60.5" y="-119.5" font-family="Helvetica,sans-Serif" font-size="10.00">include/mcpp/block.h</text>
</a>
</g>
</g>
<!-- Node2 -->
<g id="node2" class="node">
<title>Node2</title>
<g id="a_node2"><a xlink:href="mcpp_8h.html" target="_top" xlink:title="MinecraftConnection class.">
<polygon fill="white" stroke="black" points="0,-0.5 0,-19.5 121,-19.5 121,-0.5 0,-0.5"/>
<text text-anchor="middle" x="60.5" y="-7.5" font-family="Helvetica,sans-Serif" font-size="10.00">include/mcpp/mcpp.h</text>
</a>
</g>
</g>
<!-- Node1&#45;&gt;Node2 -->
<g id="edge1" class="edge">
<title>Node1&#45;&gt;Node2</title>
<path fill="none" stroke="midnightblue" d="M49.74,-103.69C45.32,-95.59 40.73,-85.64 38.5,-76 33.72,-55.34 46.22,-31.99 54.29,-19.67"/>
<polygon fill="midnightblue" stroke="midnightblue" points="46.8,-105.6 54.86,-112.48 52.85,-102.08 46.8,-105.6"/>
</g>
<!-- Node3 -->
<g id="node3" class="node">
<title>Node3</title>
<g id="a_node3"><a xlink:href="util_8h.html" target="_top" xlink:title="Coordinate class.">
<polygon fill="white" stroke="black" points="47.5,-56.5 47.5,-75.5 157.5,-75.5 157.5,-56.5 47.5,-56.5"/>
<text text-anchor="middle" x="102.5" y="-63.5" font-family="Helvetica,sans-Serif" font-size="10.00">include/mcpp/util.h</text>
</a>
</g>
</g>
<!-- Node1&#45;&gt;Node3 -->
<g id="edge2" class="edge">
<title>Node1&#45;&gt;Node3</title>
<path fill="none" stroke="midnightblue" d="M73.61,-104.14C80.93,-94.74 89.74,-83.4 95.69,-75.75"/>
<polygon fill="midnightblue" stroke="midnightblue" points="70.81,-102.04 67.44,-112.08 76.34,-106.34 70.81,-102.04"/>
</g>
<!-- Node3&#45;&gt;Node2 -->
<g id="edge3" class="edge">
<title>Node3&#45;&gt;Node2</title>
<path fill="none" stroke="midnightblue" d="M89.39,-48.14C82.07,-38.74 73.26,-27.4 67.31,-19.75"/>
<polygon fill="midnightblue" stroke="midnightblue" points="86.66,-50.34 95.56,-56.08 92.19,-46.04 86.66,-50.34"/>
</g>
</g>
</svg>
