<?xml version="1.0" encoding="UTF-8" standalone="no"?>
<!DOCTYPE svg PUBLIC "-//W3C//DTD SVG 1.1//EN"
 "http://www.w3.org/Graphics/SVG/1.1/DTD/svg11.dtd">
<!-- Generated by graphviz version 2.43.0 (0)
 -->
<!-- Title: include/mcpp/block.h Pages: 1 -->
<svg width="175pt" height="137pt"
 viewBox="0.00 0.00 175.00 137.00" xmlns="http://www.w3.org/2000/svg" xmlns:xlink="http://www.w3.org/1999/xlink">
<g id="graph0" class="graph" transform="scale(1 1) rotate(0) translate(4 133)">
<title>include/mcpp/block.h</title>
<!-- Node1 -->
<g id="Node000001" class="node">
<title>Node1</title>
<g id="a_Node000001"><a xlink:title="BlockType class.">
<polygon fill="#999999" stroke="#666666" points="166.5,-129 46.5,-129 46.5,-110 166.5,-110 166.5,-129"/>
<text text-anchor="middle" x="106.5" y="-117" font-family="Helvetica,sans-Serif" font-size="10.00">include/mcpp/block.h</text>
</a>
</g>
</g>
<!-- Node2 -->
<g id="Node000002" class="node">
<title>Node2</title>
<g id="a_Node000002"><a xlink:href="chunk_8h.html" target="_top" xlink:title=" ">
<polygon fill="white" stroke="#666666" points="123,-74 0,-74 0,-55 123,-55 123,-74"/>
<text text-anchor="middle" x="61.5" y="-62" font-family="Helvetica,sans-Serif" font-size="10.00">include/mcpp/chunk.h</text>
</a>
</g>
</g>
<!-- Node1&#45;&gt;Node2 -->
<g id="edge1_Node000001_Node000002" class="edge">
<title>Node1&#45;&gt;Node2</title>
<g id="a_edge1_Node000001_Node000002"><a xlink:title=" ">
<path fill="none" stroke="#63b8ff" d="M92.45,-101.96C84.61,-92.72 75.17,-81.6 68.79,-74.09"/>
<polygon fill="#63b8ff" stroke="#63b8ff" points="89.93,-104.39 99.07,-109.75 95.26,-99.86 89.93,-104.39"/>
</a>
</g>
</g>
<!-- Node3 -->
<g id="Node000003" class="node">
<title>Node3</title>
<g id="a_Node000003"><a xlink:href="mcpp_8h.html" target="_top" xlink:title="MinecraftConnection class.">
<polygon fill="white" stroke="#666666" points="167,-19 46,-19 46,0 167,0 167,-19"/>
<text text-anchor="middle" x="106.5" y="-7" font-family="Helvetica,sans-Serif" font-size="10.00">include/mcpp/mcpp.h</text>
</a>
</g>
</g>
<!-- Node1&#45;&gt;Node3 -->
<g id="edge3_Node000001_Node000003" class="edge">
<title>Node1&#45;&gt;Node3</title>
<g id="a_edge3_Node000001_Node000003"><a xlink:title=" ">
<path fill="none" stroke="#63b8ff" d="M119.22,-101.61C124.43,-93.67 129.84,-83.81 132.5,-74 137.98,-53.76 123.64,-31.34 114.14,-19.3"/>
<polygon fill="#63b8ff" stroke="#63b8ff" points="116.27,-99.73 113.39,-109.93 122,-103.75 116.27,-99.73"/>
</a>
</g>
</g>
<!-- Node2&#45;&gt;Node3 -->
<g id="edge2_Node000002_Node000003" class="edge">
<title>Node2&#45;&gt;Node3</title>
<g id="a_edge2_Node000002_Node000003"><a xlink:title=" ">
<path fill="none" stroke="#63b8ff" d="M75.55,-46.96C83.39,-37.72 92.83,-26.6 99.21,-19.09"/>
<polygon fill="#63b8ff" stroke="#63b8ff" points="72.74,-44.86 68.93,-54.75 78.07,-49.39 72.74,-44.86"/>
</a>
</g>
</g>
</g>
</svg>
