<?xml version="1.0" encoding="UTF-8" standalone="no"?>
<!DOCTYPE svg PUBLIC "-//W3C//DTD SVG 1.1//EN"
 "http://www.w3.org/Graphics/SVG/1.1/DTD/svg11.dtd">
<!-- Generated by graphviz version 2.43.0 (0)
 -->
<!-- Title: include/mcpp/coordinate.h Pages: 1 -->
<svg width="334pt" height="137pt"
 viewBox="0.00 0.00 333.50 137.00" xmlns="http://www.w3.org/2000/svg" xmlns:xlink="http://www.w3.org/1999/xlink">
<g id="graph0" class="graph" transform="scale(1 1) rotate(0) translate(4 133)">
<title>include/mcpp/coordinate.h</title>
<!-- Node1 -->
<g id="Node000001" class="node">
<title>Node1</title>
<g id="a_Node000001"><a xlink:title="Coordinate class.">
<polygon fill="#999999" stroke="#666666" points="224.5,-129 78.5,-129 78.5,-110 224.5,-110 224.5,-129"/>
<text text-anchor="middle" x="151.5" y="-117" font-family="Helvetica,sans-Serif" font-size="10.00">include/mcpp/coordinate.h</text>
</a>
</g>
</g>
<!-- Node2 -->
<g id="Node000002" class="node">
<title>Node2</title>
<g id="a_Node000002"><a xlink:href="chunk_8h.html" target="_top" xlink:title=" ">
<polygon fill="white" stroke="#666666" points="123,-74 0,-74 0,-55 123,-55 123,-74"/>
<text text-anchor="middle" x="61.5" y="-62" font-family="Helvetica,sans-Serif" font-size="10.00">include/mcpp/chunk.h</text>
</a>
</g>
</g>
<!-- Node1&#45;&gt;Node2 -->
<g id="edge1_Node000001_Node000002" class="edge">
<title>Node1&#45;&gt;Node2</title>
<g id="a_edge1_Node000001_Node000002"><a xlink:title=" ">
<path fill="none" stroke="#63b8ff" d="M128.06,-104.7C111.66,-95.04 90.27,-82.44 76.22,-74.17"/>
<polygon fill="#63b8ff" stroke="#63b8ff" points="126.65,-107.93 137.04,-109.98 130.2,-101.89 126.65,-107.93"/>
</a>
</g>
</g>
<!-- Node3 -->
<g id="Node000003" class="node">
<title>Node3</title>
<g id="a_Node000003"><a xlink:href="mcpp_8h.html" target="_top" xlink:title="MinecraftConnection class.">
<polygon fill="white" stroke="#666666" points="212,-19 91,-19 91,0 212,0 212,-19"/>
<text text-anchor="middle" x="151.5" y="-7" font-family="Helvetica,sans-Serif" font-size="10.00">include/mcpp/mcpp.h</text>
</a>
</g>
</g>
<!-- Node1&#45;&gt;Node3 -->
<g id="edge5_Node000001_Node000003" class="edge">
<title>Node1&#45;&gt;Node3</title>
<g id="a_edge5_Node000001_Node000003"><a xlink:title=" ">
<path fill="none" stroke="#63b8ff" d="M151.5,-99.48C151.5,-75.84 151.5,-36.5 151.5,-19.16"/>
<polygon fill="#63b8ff" stroke="#63b8ff" points="148,-99.66 151.5,-109.66 155,-99.66 148,-99.66"/>
</a>
</g>
</g>
<!-- Node4 -->
<g id="Node000004" class="node">
<title>Node4</title>
<g id="a_Node000004"><a xlink:href="heightmap_8h.html" target="_top" xlink:title=" ">
<polygon fill="white" stroke="#666666" points="325.5,-74 179.5,-74 179.5,-55 325.5,-55 325.5,-74"/>
<text text-anchor="middle" x="252.5" y="-62" font-family="Helvetica,sans-Serif" font-size="10.00">include/mcpp/heightmap.h</text>
</a>
</g>
</g>
<!-- Node1&#45;&gt;Node4 -->
<g id="edge3_Node000001_Node000004" class="edge">
<title>Node1&#45;&gt;Node4</title>
<g id="a_edge3_Node000001_Node000004"><a xlink:title=" ">
<path fill="none" stroke="#63b8ff" d="M176.78,-105.23C195.3,-95.51 219.92,-82.6 235.98,-74.17"/>
<polygon fill="#63b8ff" stroke="#63b8ff" points="174.96,-102.24 167.73,-109.98 178.21,-108.44 174.96,-102.24"/>
</a>
</g>
</g>
<!-- Node2&#45;&gt;Node3 -->
<g id="edge2_Node000002_Node000003" class="edge">
<title>Node2&#45;&gt;Node3</title>
<g id="a_edge2_Node000002_Node000003"><a xlink:title=" ">
<path fill="none" stroke="#63b8ff" d="M84.94,-49.7C101.34,-40.04 122.73,-27.44 136.78,-19.17"/>
<polygon fill="#63b8ff" stroke="#63b8ff" points="82.8,-46.89 75.96,-54.98 86.35,-52.93 82.8,-46.89"/>
</a>
</g>
</g>
<!-- Node4&#45;&gt;Node3 -->
<g id="edge4_Node000004_Node000003" class="edge">
<title>Node4&#45;&gt;Node3</title>
<g id="a_edge4_Node000004_Node000003"><a xlink:title=" ">
<path fill="none" stroke="#63b8ff" d="M227.22,-50.23C208.7,-40.51 184.08,-27.6 168.02,-19.17"/>
<polygon fill="#63b8ff" stroke="#63b8ff" points="225.79,-53.44 236.27,-54.98 229.04,-47.24 225.79,-53.44"/>
</a>
</g>
</g>
</g>
</svg>
