<?xml version="1.0" encoding="UTF-8" standalone="no"?>
<!DOCTYPE svg PUBLIC "-//W3C//DTD SVG 1.1//EN"
 "http://www.w3.org/Graphics/SVG/1.1/DTD/svg11.dtd">
<!-- Generated by graphviz version 2.43.0 (0)
 -->
<!-- Title: include/mcpp/mcpp.h Pages: 1 -->
<svg width="624pt" height="196pt"
 viewBox="0.00 0.00 623.50 196.00" xmlns="http://www.w3.org/2000/svg" xmlns:xlink="http://www.w3.org/1999/xlink">
<g id="graph0" class="graph" transform="scale(1 1) rotate(0) translate(4 192)">
<title>include/mcpp/mcpp.h</title>
<polygon fill="white" stroke="transparent" points="-4,4 -4,-192 619.5,-192 619.5,4 -4,4"/>
<!-- Node1 -->
<g id="node1" class="node">
<title>Node1</title>
<g id="a_node1"><a xlink:title="MinecraftConnection class.">
<polygon fill="#bfbfbf" stroke="black" points="352.5,-168.5 352.5,-187.5 473.5,-187.5 473.5,-168.5 352.5,-168.5"/>
<text text-anchor="middle" x="413" y="-175.5" font-family="Helvetica,sans-Serif" font-size="10.00">include/mcpp/mcpp.h</text>
</a>
</g>
</g>
<!-- Node2 -->
<g id="node2" class="node">
<title>Node2</title>
<g id="a_node2"><a xlink:href="block_8h.html" target="_top" xlink:title="BlockType class.">
<polygon fill="white" stroke="black" points="282,-56.5 282,-75.5 334,-75.5 334,-56.5 282,-56.5"/>
<text text-anchor="middle" x="308" y="-63.5" font-family="Helvetica,sans-Serif" font-size="10.00">block.h</text>
</a>
</g>
</g>
<!-- Node1&#45;&gt;Node2 -->
<g id="edge1" class="edge">
<title>Node1&#45;&gt;Node2</title>
<path fill="none" stroke="midnightblue" d="M401.49,-168.28C390.36,-159.62 373.29,-145.68 360,-132 345.27,-116.84 330.4,-97.79 320.36,-84.24"/>
<polygon fill="midnightblue" stroke="midnightblue" points="322.96,-81.86 314.24,-75.85 317.31,-85.99 322.96,-81.86"/>
</g>
<!-- Node4 -->
<g id="node4" class="node">
<title>Node4</title>
<g id="a_node4"><a xlink:href="connection_8h.html" target="_top" xlink:title="SocketConnection class.">
<polygon fill="white" stroke="black" points="120.5,-112.5 120.5,-131.5 199.5,-131.5 199.5,-112.5 120.5,-112.5"/>
<text text-anchor="middle" x="160" y="-119.5" font-family="Helvetica,sans-Serif" font-size="10.00">connection.h</text>
</a>
</g>
</g>
<!-- Node1&#45;&gt;Node4 -->
<g id="edge3" class="edge">
<title>Node1&#45;&gt;Node4</title>
<path fill="none" stroke="midnightblue" d="M372.91,-168.44C328.68,-159 257.46,-143.8 209.72,-133.61"/>
<polygon fill="midnightblue" stroke="midnightblue" points="210.41,-130.18 199.9,-131.52 208.95,-137.03 210.41,-130.18"/>
</g>
<!-- Node9 -->
<g id="node9" class="node">
<title>Node9</title>
<g id="a_node9"><a xlink:href="util_8h.html" target="_top" xlink:title="Coordinate class.">
<polygon fill="white" stroke="black" points="368.5,-112.5 368.5,-131.5 409.5,-131.5 409.5,-112.5 368.5,-112.5"/>
<text text-anchor="middle" x="389" y="-119.5" font-family="Helvetica,sans-Serif" font-size="10.00">util.h</text>
</a>
</g>
</g>
<!-- Node1&#45;&gt;Node9 -->
<g id="edge8" class="edge">
<title>Node1&#45;&gt;Node9</title>
<path fill="none" stroke="midnightblue" d="M409.04,-168.08C405.79,-160.77 401.08,-150.18 397.05,-141.1"/>
<polygon fill="midnightblue" stroke="midnightblue" points="400.15,-139.47 392.89,-131.75 393.75,-142.31 400.15,-139.47"/>
</g>
<!-- Node12 -->
<g id="node12" class="node">
<title>Node12</title>
<g id="a_node12"><a xlink:title=" ">
<polygon fill="white" stroke="#bfbfbf" points="532.5,-56.5 532.5,-75.5 579.5,-75.5 579.5,-56.5 532.5,-56.5"/>
<text text-anchor="middle" x="556" y="-63.5" font-family="Helvetica,sans-Serif" font-size="10.00">vector</text>
</a>
</g>
</g>
<!-- Node1&#45;&gt;Node12 -->
<g id="edge16" class="edge">
<title>Node1&#45;&gt;Node12</title>
<path fill="none" stroke="midnightblue" d="M416.94,-168.31C423.49,-154.68 437.84,-128.18 457,-112 476.22,-95.78 502.24,-84.25 522.78,-76.93"/>
<polygon fill="midnightblue" stroke="midnightblue" points="524.03,-80.2 532.37,-73.67 521.78,-73.57 524.03,-80.2"/>
</g>
<!-- Node13 -->
<g id="node13" class="node">
<title>Node13</title>
<g id="a_node13"><a xlink:title=" ">
<polygon fill="white" stroke="#bfbfbf" points="466,-112.5 466,-131.5 524,-131.5 524,-112.5 466,-112.5"/>
<text text-anchor="middle" x="495" y="-119.5" font-family="Helvetica,sans-Serif" font-size="10.00">memory</text>
</a>
</g>
</g>
<!-- Node1&#45;&gt;Node13 -->
<g id="edge14" class="edge">
<title>Node1&#45;&gt;Node13</title>
<path fill="none" stroke="midnightblue" d="M426.17,-168.32C438.85,-159.98 458.23,-147.21 473.21,-137.35"/>
<polygon fill="midnightblue" stroke="midnightblue" points="475.43,-140.08 481.86,-131.65 471.58,-134.23 475.43,-140.08"/>
</g>
<!-- Node14 -->
<g id="node14" class="node">
<title>Node14</title>
<g id="a_node14"><a xlink:title=" ">
<polygon fill="white" stroke="#bfbfbf" points="542.5,-112.5 542.5,-131.5 615.5,-131.5 615.5,-112.5 542.5,-112.5"/>
<text text-anchor="middle" x="579" y="-119.5" font-family="Helvetica,sans-Serif" font-size="10.00">string_view</text>
</a>
</g>
</g>
<!-- Node1&#45;&gt;Node14 -->
<g id="edge15" class="edge">
<title>Node1&#45;&gt;Node14</title>
<path fill="none" stroke="midnightblue" d="M439.3,-168.44C467.35,-159.32 511.94,-144.81 543.18,-134.65"/>
<polygon fill="midnightblue" stroke="midnightblue" points="544.39,-137.94 552.82,-131.52 542.23,-131.28 544.39,-137.94"/>
</g>
<!-- Node3 -->
<g id="node3" class="node">
<title>Node3</title>
<g id="a_node3"><a xlink:title=" ">
<polygon fill="white" stroke="#bfbfbf" points="306.5,-0.5 306.5,-19.5 363.5,-19.5 363.5,-0.5 306.5,-0.5"/>
<text text-anchor="middle" x="335" y="-7.5" font-family="Helvetica,sans-Serif" font-size="10.00">ostream</text>
</a>
</g>
</g>
<!-- Node2&#45;&gt;Node3 -->
<g id="edge2" class="edge">
<title>Node2&#45;&gt;Node3</title>
<path fill="none" stroke="midnightblue" d="M312.46,-56.08C316.15,-48.69 321.52,-37.95 326.09,-28.81"/>
<polygon fill="midnightblue" stroke="midnightblue" points="329.28,-30.26 330.62,-19.75 323.02,-27.13 329.28,-30.26"/>
</g>
<!-- Node5 -->
<g id="node5" class="node">
<title>Node5</title>
<g id="a_node5"><a xlink:title=" ">
<polygon fill="white" stroke="#bfbfbf" points="62,-56.5 62,-75.5 112,-75.5 112,-56.5 62,-56.5"/>
<text text-anchor="middle" x="87" y="-63.5" font-family="Helvetica,sans-Serif" font-size="10.00">cstdint</text>
</a>
</g>
</g>
<!-- Node4&#45;&gt;Node5 -->
<g id="edge4" class="edge">
<title>Node4&#45;&gt;Node5</title>
<path fill="none" stroke="midnightblue" d="M148.27,-112.32C137.16,-104.11 120.26,-91.6 107.02,-81.81"/>
<polygon fill="midnightblue" stroke="midnightblue" points="109.06,-78.97 98.94,-75.83 104.9,-84.59 109.06,-78.97"/>
</g>
<!-- Node6 -->
<g id="node6" class="node">
<title>Node6</title>
<g id="a_node6"><a xlink:title=" ">
<polygon fill="white" stroke="#bfbfbf" points="130,-56.5 130,-75.5 190,-75.5 190,-56.5 130,-56.5"/>
<text text-anchor="middle" x="160" y="-63.5" font-family="Helvetica,sans-Serif" font-size="10.00">iostream</text>
</a>
</g>
</g>
<!-- Node4&#45;&gt;Node6 -->
<g id="edge5" class="edge">
<title>Node4&#45;&gt;Node6</title>
<path fill="none" stroke="midnightblue" d="M160,-112.08C160,-105.01 160,-94.86 160,-85.99"/>
<polygon fill="midnightblue" stroke="midnightblue" points="163.5,-85.75 160,-75.75 156.5,-85.75 163.5,-85.75"/>
</g>
<!-- Node7 -->
<g id="node7" class="node">
<title>Node7</title>
<g id="a_node7"><a xlink:title=" ">
<polygon fill="white" stroke="#bfbfbf" points="208,-56.5 208,-75.5 264,-75.5 264,-56.5 208,-56.5"/>
<text text-anchor="middle" x="236" y="-63.5" font-family="Helvetica,sans-Serif" font-size="10.00">sstream</text>
</a>
</g>
</g>
<!-- Node4&#45;&gt;Node7 -->
<g id="edge6" class="edge">
<title>Node4&#45;&gt;Node7</title>
<path fill="none" stroke="midnightblue" d="M172.21,-112.32C183.78,-104.11 201.38,-91.6 215.16,-81.81"/>
<polygon fill="midnightblue" stroke="midnightblue" points="217.44,-84.48 223.57,-75.83 213.39,-78.77 217.44,-84.48"/>
</g>
<!-- Node8 -->
<g id="node8" class="node">
<title>Node8</title>
<g id="a_node8"><a xlink:title=" ">
<polygon fill="white" stroke="#bfbfbf" points="0,-56.5 0,-75.5 44,-75.5 44,-56.5 0,-56.5"/>
<text text-anchor="middle" x="22" y="-63.5" font-family="Helvetica,sans-Serif" font-size="10.00">string</text>
</a>
</g>
</g>
<!-- Node4&#45;&gt;Node8 -->
<g id="edge7" class="edge">
<title>Node4&#45;&gt;Node8</title>
<path fill="none" stroke="midnightblue" d="M138.13,-112.44C115.22,-103.48 79.02,-89.31 53.13,-79.18"/>
<polygon fill="midnightblue" stroke="midnightblue" points="54.35,-75.9 43.76,-75.52 51.8,-82.42 54.35,-75.9"/>
</g>
<!-- Node9&#45;&gt;Node2 -->
<g id="edge9" class="edge">
<title>Node9&#45;&gt;Node2</title>
<path fill="none" stroke="midnightblue" d="M375.99,-112.32C363.47,-103.98 344.32,-91.21 329.53,-81.35"/>
<polygon fill="midnightblue" stroke="midnightblue" points="331.24,-78.29 320.98,-75.65 327.36,-84.11 331.24,-78.29"/>
</g>
<!-- Node9&#45;&gt;Node3 -->
<g id="edge12" class="edge">
<title>Node9&#45;&gt;Node3</title>
<path fill="none" stroke="midnightblue" d="M384.76,-112.37C375.93,-94.38 355.4,-52.55 343.65,-28.63"/>
<polygon fill="midnightblue" stroke="midnightblue" points="346.77,-27.03 339.22,-19.59 340.48,-30.11 346.77,-27.03"/>
</g>
<!-- Node10 -->
<g id="node10" class="node">
<title>Node10</title>
<g id="a_node10"><a xlink:title=" ">
<polygon fill="white" stroke="#bfbfbf" points="390.5,-56.5 390.5,-75.5 443.5,-75.5 443.5,-56.5 390.5,-56.5"/>
<text text-anchor="middle" x="417" y="-63.5" font-family="Helvetica,sans-Serif" font-size="10.00">cstddef</text>
</a>
</g>
</g>
<!-- Node9&#45;&gt;Node10 -->
<g id="edge10" class="edge">
<title>Node9&#45;&gt;Node10</title>
<path fill="none" stroke="midnightblue" d="M393.62,-112.08C397.46,-104.69 403.02,-93.95 407.76,-84.81"/>
<polygon fill="midnightblue" stroke="midnightblue" points="410.97,-86.24 412.46,-75.75 404.75,-83.02 410.97,-86.24"/>
</g>
<!-- Node11 -->
<g id="node11" class="node">
<title>Node11</title>
<g id="a_node11"><a xlink:title=" ">
<polygon fill="white" stroke="#bfbfbf" points="461.5,-56.5 461.5,-75.5 514.5,-75.5 514.5,-56.5 461.5,-56.5"/>
<text text-anchor="middle" x="488" y="-63.5" font-family="Helvetica,sans-Serif" font-size="10.00">iterator</text>
</a>
</g>
</g>
<!-- Node9&#45;&gt;Node11 -->
<g id="edge11" class="edge">
<title>Node9&#45;&gt;Node11</title>
<path fill="none" stroke="midnightblue" d="M404.91,-112.32C420.64,-103.74 444.94,-90.49 463.21,-80.52"/>
<polygon fill="midnightblue" stroke="midnightblue" points="465.03,-83.52 472.13,-75.65 461.68,-77.37 465.03,-83.52"/>
</g>
<!-- Node9&#45;&gt;Node12 -->
<g id="edge13" class="edge">
<title>Node9&#45;&gt;Node12</title>
<path fill="none" stroke="midnightblue" d="M409.81,-114.27C438.02,-105.15 488.73,-88.75 522.37,-77.87"/>
<polygon fill="midnightblue" stroke="midnightblue" points="523.79,-81.09 532.23,-74.69 521.63,-74.43 523.79,-81.09"/>
</g>
</g>
</svg>
