<?xml version="1.0" encoding="UTF-8" standalone="no"?>
<!DOCTYPE svg PUBLIC "-//W3C//DTD SVG 1.1//EN"
 "http://www.w3.org/Graphics/SVG/1.1/DTD/svg11.dtd">
<!-- Generated by graphviz version 2.43.0 (0)
 -->
<!-- Title: include/mcpp/mcpp.h Pages: 1 -->
<svg width="595pt" height="196pt"
 viewBox="0.00 0.00 594.50 196.00" xmlns="http://www.w3.org/2000/svg" xmlns:xlink="http://www.w3.org/1999/xlink">
<g id="graph0" class="graph" transform="scale(1 1) rotate(0) translate(4 192)">
<title>include/mcpp/mcpp.h</title>
<polygon fill="white" stroke="transparent" points="-4,4 -4,-192 590.5,-192 590.5,4 -4,4"/>
<!-- Node1 -->
<g id="node1" class="node">
<title>Node1</title>
<g id="a_node1"><a xlink:title="MinecraftConnection class.">
<polygon fill="#bfbfbf" stroke="black" points="323.5,-168.5 323.5,-187.5 444.5,-187.5 444.5,-168.5 323.5,-168.5"/>
<text text-anchor="middle" x="384" y="-175.5" font-family="Helvetica,sans-Serif" font-size="10.00">include/mcpp/mcpp.h</text>
</a>
</g>
</g>
<!-- Node2 -->
<g id="node2" class="node">
<title>Node2</title>
<g id="a_node2"><a xlink:href="block_8h.html" target="_top" xlink:title="BlockType class.">
<polygon fill="white" stroke="black" points="282,-56.5 282,-75.5 334,-75.5 334,-56.5 282,-56.5"/>
<text text-anchor="middle" x="308" y="-63.5" font-family="Helvetica,sans-Serif" font-size="10.00">block.h</text>
</a>
</g>
</g>
<!-- Node1&#45;&gt;Node2 -->
<g id="edge1" class="edge">
<title>Node1&#45;&gt;Node2</title>
<path fill="none" stroke="midnightblue" d="M369.7,-168.33C357.56,-160.29 340.49,-147.3 330,-132 320.42,-118.03 314.69,-99.53 311.5,-85.84"/>
<polygon fill="midnightblue" stroke="midnightblue" points="314.85,-84.75 309.38,-75.67 307.99,-86.18 314.85,-84.75"/>
</g>
<!-- Node4 -->
<g id="node4" class="node">
<title>Node4</title>
<g id="a_node4"><a xlink:href="connection_8h.html" target="_top" xlink:title="SocketConnection class.">
<polygon fill="white" stroke="black" points="134.5,-112.5 134.5,-131.5 213.5,-131.5 213.5,-112.5 134.5,-112.5"/>
<text text-anchor="middle" x="174" y="-119.5" font-family="Helvetica,sans-Serif" font-size="10.00">connection.h</text>
</a>
</g>
</g>
<!-- Node1&#45;&gt;Node4 -->
<g id="edge3" class="edge">
<title>Node1&#45;&gt;Node4</title>
<path fill="none" stroke="midnightblue" d="M350.72,-168.44C314.55,-159.14 256.62,-144.25 217.02,-134.06"/>
<polygon fill="midnightblue" stroke="midnightblue" points="217.68,-130.62 207.12,-131.52 215.93,-137.4 217.68,-130.62"/>
</g>
<!-- Node9 -->
<g id="node9" class="node">
<title>Node9</title>
<g id="a_node9"><a xlink:href="util_8h.html" target="_top" xlink:title="Coordinate class.">
<polygon fill="white" stroke="black" points="339.5,-112.5 339.5,-131.5 380.5,-131.5 380.5,-112.5 339.5,-112.5"/>
<text text-anchor="middle" x="360" y="-119.5" font-family="Helvetica,sans-Serif" font-size="10.00">util.h</text>
</a>
</g>
</g>
<!-- Node1&#45;&gt;Node9 -->
<g id="edge8" class="edge">
<title>Node1&#45;&gt;Node9</title>
<path fill="none" stroke="midnightblue" d="M380.04,-168.08C376.79,-160.77 372.08,-150.18 368.05,-141.1"/>
<polygon fill="midnightblue" stroke="midnightblue" points="371.15,-139.47 363.89,-131.75 364.75,-142.31 371.15,-139.47"/>
</g>
<!-- Node10 -->
<g id="node10" class="node">
<title>Node10</title>
<g id="a_node10"><a xlink:title=" ">
<polygon fill="white" stroke="#bfbfbf" points="390.5,-56.5 390.5,-75.5 437.5,-75.5 437.5,-56.5 390.5,-56.5"/>
<text text-anchor="middle" x="414" y="-63.5" font-family="Helvetica,sans-Serif" font-size="10.00">vector</text>
</a>
</g>
</g>
<!-- Node1&#45;&gt;Node10 -->
<g id="edge14" class="edge">
<title>Node1&#45;&gt;Node10</title>
<path fill="none" stroke="midnightblue" d="M386.35,-168.37C391.22,-150.54 402.46,-109.3 409.02,-85.27"/>
<polygon fill="midnightblue" stroke="midnightblue" points="412.4,-86.16 411.66,-75.59 405.65,-84.32 412.4,-86.16"/>
</g>
<!-- Node11 -->
<g id="node11" class="node">
<title>Node11</title>
<g id="a_node11"><a xlink:title=" ">
<polygon fill="white" stroke="#bfbfbf" points="437,-112.5 437,-131.5 495,-131.5 495,-112.5 437,-112.5"/>
<text text-anchor="middle" x="466" y="-119.5" font-family="Helvetica,sans-Serif" font-size="10.00">memory</text>
</a>
</g>
</g>
<!-- Node1&#45;&gt;Node11 -->
<g id="edge12" class="edge">
<title>Node1&#45;&gt;Node11</title>
<path fill="none" stroke="midnightblue" d="M397.17,-168.32C409.85,-159.98 429.23,-147.21 444.21,-137.35"/>
<polygon fill="midnightblue" stroke="midnightblue" points="446.43,-140.08 452.86,-131.65 442.58,-134.23 446.43,-140.08"/>
</g>
<!-- Node12 -->
<g id="node12" class="node">
<title>Node12</title>
<g id="a_node12"><a xlink:title=" ">
<polygon fill="white" stroke="#bfbfbf" points="513.5,-112.5 513.5,-131.5 586.5,-131.5 586.5,-112.5 513.5,-112.5"/>
<text text-anchor="middle" x="550" y="-119.5" font-family="Helvetica,sans-Serif" font-size="10.00">string_view</text>
</a>
</g>
</g>
<!-- Node1&#45;&gt;Node12 -->
<g id="edge13" class="edge">
<title>Node1&#45;&gt;Node12</title>
<path fill="none" stroke="midnightblue" d="M410.3,-168.44C438.35,-159.32 482.94,-144.81 514.18,-134.65"/>
<polygon fill="midnightblue" stroke="midnightblue" points="515.39,-137.94 523.82,-131.52 513.23,-131.28 515.39,-137.94"/>
</g>
<!-- Node3 -->
<g id="node3" class="node">
<title>Node3</title>
<g id="a_node3"><a xlink:title=" ">
<polygon fill="white" stroke="#bfbfbf" points="306.5,-0.5 306.5,-19.5 363.5,-19.5 363.5,-0.5 306.5,-0.5"/>
<text text-anchor="middle" x="335" y="-7.5" font-family="Helvetica,sans-Serif" font-size="10.00">ostream</text>
</a>
</g>
</g>
<!-- Node2&#45;&gt;Node3 -->
<g id="edge2" class="edge">
<title>Node2&#45;&gt;Node3</title>
<path fill="none" stroke="midnightblue" d="M312.46,-56.08C316.15,-48.69 321.52,-37.95 326.09,-28.81"/>
<polygon fill="midnightblue" stroke="midnightblue" points="329.28,-30.26 330.62,-19.75 323.02,-27.13 329.28,-30.26"/>
</g>
<!-- Node5 -->
<g id="node5" class="node">
<title>Node5</title>
<g id="a_node5"><a xlink:title=" ">
<polygon fill="white" stroke="#bfbfbf" points="214,-56.5 214,-75.5 264,-75.5 264,-56.5 214,-56.5"/>
<text text-anchor="middle" x="239" y="-63.5" font-family="Helvetica,sans-Serif" font-size="10.00">cstdint</text>
</a>
</g>
</g>
<!-- Node4&#45;&gt;Node5 -->
<g id="edge4" class="edge">
<title>Node4&#45;&gt;Node5</title>
<path fill="none" stroke="midnightblue" d="M184.44,-112.32C194.15,-104.26 208.82,-92.08 220.5,-82.37"/>
<polygon fill="midnightblue" stroke="midnightblue" points="222.91,-84.92 228.37,-75.83 218.44,-79.53 222.91,-84.92"/>
</g>
<!-- Node6 -->
<g id="node6" class="node">
<title>Node6</title>
<g id="a_node6"><a xlink:title=" ">
<polygon fill="white" stroke="#bfbfbf" points="0,-56.5 0,-75.5 60,-75.5 60,-56.5 0,-56.5"/>
<text text-anchor="middle" x="30" y="-63.5" font-family="Helvetica,sans-Serif" font-size="10.00">iostream</text>
</a>
</g>
</g>
<!-- Node4&#45;&gt;Node6 -->
<g id="edge5" class="edge">
<title>Node4&#45;&gt;Node6</title>
<path fill="none" stroke="midnightblue" d="M151.18,-112.44C127.17,-103.44 89.17,-89.19 62.13,-79.05"/>
<polygon fill="midnightblue" stroke="midnightblue" points="63.3,-75.75 52.71,-75.52 60.84,-82.3 63.3,-75.75"/>
</g>
<!-- Node7 -->
<g id="node7" class="node">
<title>Node7</title>
<g id="a_node7"><a xlink:title=" ">
<polygon fill="white" stroke="#bfbfbf" points="78,-56.5 78,-75.5 134,-75.5 134,-56.5 78,-56.5"/>
<text text-anchor="middle" x="106" y="-63.5" font-family="Helvetica,sans-Serif" font-size="10.00">sstream</text>
</a>
</g>
</g>
<!-- Node4&#45;&gt;Node7 -->
<g id="edge6" class="edge">
<title>Node4&#45;&gt;Node7</title>
<path fill="none" stroke="midnightblue" d="M163.07,-112.32C152.83,-104.18 137.28,-91.84 125,-82.09"/>
<polygon fill="midnightblue" stroke="midnightblue" points="127.13,-79.31 117.12,-75.83 122.78,-84.79 127.13,-79.31"/>
</g>
<!-- Node8 -->
<g id="node8" class="node">
<title>Node8</title>
<g id="a_node8"><a xlink:title=" ">
<polygon fill="white" stroke="#bfbfbf" points="152,-56.5 152,-75.5 196,-75.5 196,-56.5 152,-56.5"/>
<text text-anchor="middle" x="174" y="-63.5" font-family="Helvetica,sans-Serif" font-size="10.00">string</text>
</a>
</g>
</g>
<!-- Node4&#45;&gt;Node8 -->
<g id="edge7" class="edge">
<title>Node4&#45;&gt;Node8</title>
<path fill="none" stroke="midnightblue" d="M174,-112.08C174,-105.01 174,-94.86 174,-85.99"/>
<polygon fill="midnightblue" stroke="midnightblue" points="177.5,-85.75 174,-75.75 170.5,-85.75 177.5,-85.75"/>
</g>
<!-- Node9&#45;&gt;Node2 -->
<g id="edge9" class="edge">
<title>Node9&#45;&gt;Node2</title>
<path fill="none" stroke="midnightblue" d="M351.41,-112.08C343.84,-104.22 332.62,-92.57 323.49,-83.08"/>
<polygon fill="midnightblue" stroke="midnightblue" points="325.88,-80.53 316.43,-75.75 320.84,-85.38 325.88,-80.53"/>
</g>
<!-- Node9&#45;&gt;Node3 -->
<g id="edge10" class="edge">
<title>Node9&#45;&gt;Node3</title>
<path fill="none" stroke="midnightblue" d="M358.04,-112.37C354,-94.62 344.7,-53.67 339.23,-29.6"/>
<polygon fill="midnightblue" stroke="midnightblue" points="342.58,-28.57 336.95,-19.59 335.76,-30.12 342.58,-28.57"/>
</g>
<!-- Node9&#45;&gt;Node10 -->
<g id="edge11" class="edge">
<title>Node9&#45;&gt;Node10</title>
<path fill="none" stroke="midnightblue" d="M368.92,-112.08C376.78,-104.22 388.43,-92.57 397.92,-83.08"/>
<polygon fill="midnightblue" stroke="midnightblue" points="400.65,-85.3 405.25,-75.75 395.7,-80.35 400.65,-85.3"/>
</g>
</g>
</svg>
