<?xml version="1.0" encoding="UTF-8" standalone="no"?>
<!DOCTYPE svg PUBLIC "-//W3C//DTD SVG 1.1//EN"
 "http://www.w3.org/Graphics/SVG/1.1/DTD/svg11.dtd">
<!-- Generated by graphviz version 2.43.0 (0)
 -->
<!-- Title: include/mcpp/mcpp.h Pages: 1 -->
<svg width="335pt" height="192pt"
 viewBox="0.00 0.00 335.00 192.00" xmlns="http://www.w3.org/2000/svg" xmlns:xlink="http://www.w3.org/1999/xlink">
<g id="graph0" class="graph" transform="scale(1 1) rotate(0) translate(4 188)">
<title>include/mcpp/mcpp.h</title>
<!-- Node1 -->
<g id="Node000001" class="node">
<title>Node1</title>
<g id="a_Node000001"><a xlink:title="MinecraftConnection class.">
<polygon fill="#999999" stroke="#666666" points="206.5,-184 85.5,-184 85.5,-165 206.5,-165 206.5,-184"/>
<text text-anchor="middle" x="146" y="-172" font-family="Helvetica,sans-Serif" font-size="10.00">include/mcpp/mcpp.h</text>
</a>
</g>
</g>
<!-- Node2 -->
<g id="Node000002" class="node">
<title>Node2</title>
<g id="a_Node000002"><a xlink:href="block_8h.html" target="_top" xlink:title="BlockType class.">
<polygon fill="white" stroke="#666666" points="52,-74 0,-74 0,-55 52,-55 52,-74"/>
<text text-anchor="middle" x="26" y="-62" font-family="Helvetica,sans-Serif" font-size="10.00">block.h</text>
</a>
</g>
</g>
<!-- Node1&#45;&gt;Node2 -->
<g id="edge1_Node000001_Node000002" class="edge">
<title>Node1&#45;&gt;Node2</title>
<g id="a_edge1_Node000001_Node000002"><a xlink:title=" ">
<path fill="none" stroke="#63b8ff" d="M136.18,-164.66C115.77,-146.3 68.57,-103.81 43.07,-80.87"/>
<polygon fill="#63b8ff" stroke="#63b8ff" points="45.39,-78.25 35.62,-74.16 40.71,-83.45 45.39,-78.25"/>
</a>
</g>
</g>
<!-- Node5 -->
<g id="Node000005" class="node">
<title>Node5</title>
<g id="a_Node000005"><a xlink:href="chunk_8h.html" target="_top" xlink:title=" ">
<polygon fill="white" stroke="#666666" points="173.5,-129 118.5,-129 118.5,-110 173.5,-110 173.5,-129"/>
<text text-anchor="middle" x="146" y="-117" font-family="Helvetica,sans-Serif" font-size="10.00">chunk.h</text>
</a>
</g>
</g>
<!-- Node1&#45;&gt;Node5 -->
<g id="edge4_Node000001_Node000005" class="edge">
<title>Node1&#45;&gt;Node5</title>
<g id="a_edge4_Node000001_Node000005"><a xlink:title=" ">
<path fill="none" stroke="#63b8ff" d="M146,-164.75C146,-157.8 146,-147.85 146,-139.13"/>
<polygon fill="#63b8ff" stroke="#63b8ff" points="149.5,-139.09 146,-129.09 142.5,-139.09 149.5,-139.09"/>
</a>
</g>
</g>
<!-- Node6 -->
<g id="Node000006" class="node">
<title>Node6</title>
<g id="a_Node000006"><a xlink:href="coordinate_8h.html" target="_top" xlink:title="Coordinate class.">
<polygon fill="white" stroke="#666666" points="147.5,-74 70.5,-74 70.5,-55 147.5,-55 147.5,-74"/>
<text text-anchor="middle" x="109" y="-62" font-family="Helvetica,sans-Serif" font-size="10.00">coordinate.h</text>
</a>
</g>
</g>
<!-- Node1&#45;&gt;Node6 -->
<g id="edge10_Node000001_Node000006" class="edge">
<title>Node1&#45;&gt;Node6</title>
<g id="a_edge10_Node000001_Node000006"><a xlink:title=" ">
<path fill="none" stroke="#63b8ff" d="M135.56,-164.87C126.58,-156.7 114.26,-143.55 109,-129 103.78,-114.57 104.24,-97.05 105.74,-84.08"/>
<polygon fill="#63b8ff" stroke="#63b8ff" points="109.23,-84.43 107.22,-74.03 102.3,-83.42 109.23,-84.43"/>
</a>
</g>
</g>
<!-- Node7 -->
<g id="Node000007" class="node">
<title>Node7</title>
<g id="a_Node000007"><a xlink:title=" ">
<polygon fill="#e0e0e0" stroke="#999999" points="327,-74 269,-74 269,-55 327,-55 327,-74"/>
<text text-anchor="middle" x="298" y="-62" font-family="Helvetica,sans-Serif" font-size="10.00">memory</text>
</a>
</g>
</g>
<!-- Node1&#45;&gt;Node7 -->
<g id="edge16_Node000001_Node000007" class="edge">
<title>Node1&#45;&gt;Node7</title>
<g id="a_edge16_Node000001_Node000007"><a xlink:title=" ">
<path fill="none" stroke="#63b8ff" d="M206.56,-165.78C231.95,-159.65 259.94,-148.68 279,-129 290.62,-117 295.17,-98.19 296.93,-84.15"/>
<polygon fill="#63b8ff" stroke="#63b8ff" points="300.43,-84.41 297.83,-74.13 293.45,-83.78 300.43,-84.41"/>
</a>
</g>
</g>
<!-- Node9 -->
<g id="Node000009" class="node">
<title>Node9</title>
<g id="a_Node000009"><a xlink:href="heightmap_8h.html" target="_top" xlink:title=" ">
<polygon fill="white" stroke="#666666" points="270,-129 192,-129 192,-110 270,-110 270,-129"/>
<text text-anchor="middle" x="231" y="-117" font-family="Helvetica,sans-Serif" font-size="10.00">heightmap.h</text>
</a>
</g>
</g>
<!-- Node1&#45;&gt;Node9 -->
<g id="edge11_Node000001_Node000009" class="edge">
<title>Node1&#45;&gt;Node9</title>
<g id="a_edge11_Node000001_Node000009"><a xlink:title=" ">
<path fill="none" stroke="#63b8ff" d="M159.66,-164.98C172.84,-156.77 193.03,-144.18 208.57,-134.49"/>
<polygon fill="#63b8ff" stroke="#63b8ff" points="210.46,-137.43 217.09,-129.17 206.76,-131.49 210.46,-137.43"/>
</a>
</g>
</g>
<!-- Node3 -->
<g id="Node000003" class="node">
<title>Node3</title>
<g id="a_Node000003"><a xlink:title=" ">
<polygon fill="#e0e0e0" stroke="#999999" points="215,-19 165,-19 165,0 215,0 215,-19"/>
<text text-anchor="middle" x="190" y="-7" font-family="Helvetica,sans-Serif" font-size="10.00">cstdint</text>
</a>
</g>
</g>
<!-- Node2&#45;&gt;Node3 -->
<g id="edge2_Node000002_Node000003" class="edge">
<title>Node2&#45;&gt;Node3</title>
<g id="a_edge2_Node000002_Node000003"><a xlink:title=" ">
<path fill="none" stroke="#63b8ff" d="M52.35,-54.98C80.17,-45.99 124.17,-31.77 154.92,-21.84"/>
<polygon fill="#63b8ff" stroke="#63b8ff" points="156.35,-25.05 164.79,-18.65 154.2,-18.39 156.35,-25.05"/>
</a>
</g>
</g>
<!-- Node4 -->
<g id="Node000004" class="node">
<title>Node4</title>
<g id="a_Node000004"><a xlink:title=" ">
<polygon fill="#e0e0e0" stroke="#999999" points="95.5,-19 38.5,-19 38.5,0 95.5,0 95.5,-19"/>
<text text-anchor="middle" x="67" y="-7" font-family="Helvetica,sans-Serif" font-size="10.00">ostream</text>
</a>
</g>
</g>
<!-- Node2&#45;&gt;Node4 -->
<g id="edge3_Node000002_Node000004" class="edge">
<title>Node2&#45;&gt;Node4</title>
<g id="a_edge3_Node000002_Node000004"><a xlink:title=" ">
<path fill="none" stroke="#63b8ff" d="M32.77,-54.75C38.56,-47.26 47.06,-36.28 54.14,-27.13"/>
<polygon fill="#63b8ff" stroke="#63b8ff" points="57.01,-29.14 60.36,-19.09 51.47,-24.86 57.01,-29.14"/>
</a>
</g>
</g>
<!-- Node5&#45;&gt;Node2 -->
<g id="edge5_Node000005_Node000002" class="edge">
<title>Node5&#45;&gt;Node2</title>
<g id="a_edge5_Node000005_Node000002"><a xlink:title=" ">
<path fill="none" stroke="#63b8ff" d="M126.72,-109.98C107.33,-101.42 77.19,-88.11 54.93,-78.28"/>
<polygon fill="#63b8ff" stroke="#63b8ff" points="56.19,-75.01 45.63,-74.17 53.36,-81.41 56.19,-75.01"/>
</a>
</g>
</g>
<!-- Node5&#45;&gt;Node6 -->
<g id="edge6_Node000005_Node000006" class="edge">
<title>Node5&#45;&gt;Node6</title>
<g id="a_edge6_Node000005_Node000006"><a xlink:title=" ">
<path fill="none" stroke="#63b8ff" d="M139.89,-109.75C134.72,-102.34 127.15,-91.5 120.81,-82.41"/>
<polygon fill="#63b8ff" stroke="#63b8ff" points="123.59,-80.29 115,-74.09 117.85,-84.29 123.59,-80.29"/>
</a>
</g>
</g>
<!-- Node5&#45;&gt;Node7 -->
<g id="edge8_Node000005_Node000007" class="edge">
<title>Node5&#45;&gt;Node7</title>
<g id="a_edge8_Node000005_Node000007"><a xlink:title=" ">
<path fill="none" stroke="#63b8ff" d="M170.42,-109.98C195.72,-101.16 235.45,-87.31 263.86,-77.41"/>
<polygon fill="#63b8ff" stroke="#63b8ff" points="265.1,-80.68 273.39,-74.08 262.79,-74.07 265.1,-80.68"/>
</a>
</g>
</g>
<!-- Node8 -->
<g id="Node000008" class="node">
<title>Node8</title>
<g id="a_Node000008"><a xlink:title=" ">
<polygon fill="#e0e0e0" stroke="#999999" points="212.5,-74 165.5,-74 165.5,-55 212.5,-55 212.5,-74"/>
<text text-anchor="middle" x="189" y="-62" font-family="Helvetica,sans-Serif" font-size="10.00">vector</text>
</a>
</g>
</g>
<!-- Node5&#45;&gt;Node8 -->
<g id="edge9_Node000005_Node000008" class="edge">
<title>Node5&#45;&gt;Node8</title>
<g id="a_edge9_Node000005_Node000008"><a xlink:title=" ">
<path fill="none" stroke="#63b8ff" d="M153.1,-109.75C159.17,-102.26 168.09,-91.28 175.51,-82.13"/>
<polygon fill="#63b8ff" stroke="#63b8ff" points="178.45,-84.06 182.03,-74.09 173.01,-79.65 178.45,-84.06"/>
</a>
</g>
</g>
<!-- Node6&#45;&gt;Node4 -->
<g id="edge7_Node000006_Node000004" class="edge">
<title>Node6&#45;&gt;Node4</title>
<g id="a_edge7_Node000006_Node000004"><a xlink:title=" ">
<path fill="none" stroke="#63b8ff" d="M102.06,-54.75C96.13,-47.26 87.43,-36.28 80.18,-27.13"/>
<polygon fill="#63b8ff" stroke="#63b8ff" points="82.76,-24.75 73.81,-19.09 77.27,-29.1 82.76,-24.75"/>
</a>
</g>
</g>
<!-- Node9&#45;&gt;Node3 -->
<g id="edge13_Node000009_Node000003" class="edge">
<title>Node9&#45;&gt;Node3</title>
<g id="a_edge13_Node000009_Node000003"><a xlink:title=" ">
<path fill="none" stroke="#63b8ff" d="M231.07,-109.95C230.89,-97.44 229.47,-73.6 222,-55 217.94,-44.88 211.1,-34.91 204.79,-26.98"/>
<polygon fill="#63b8ff" stroke="#63b8ff" points="207.41,-24.66 198.3,-19.26 202.06,-29.17 207.41,-24.66"/>
</a>
</g>
</g>
<!-- Node9&#45;&gt;Node6 -->
<g id="edge12_Node000009_Node000006" class="edge">
<title>Node9&#45;&gt;Node6</title>
<g id="a_edge12_Node000009_Node000006"><a xlink:title=" ">
<path fill="none" stroke="#63b8ff" d="M211.4,-109.98C191.68,-101.42 161.05,-88.11 138.42,-78.28"/>
<polygon fill="#63b8ff" stroke="#63b8ff" points="139.52,-74.94 128.96,-74.17 136.74,-81.37 139.52,-74.94"/>
</a>
</g>
</g>
<!-- Node9&#45;&gt;Node7 -->
<g id="edge14_Node000009_Node000007" class="edge">
<title>Node9&#45;&gt;Node7</title>
<g id="a_edge14_Node000009_Node000007"><a xlink:title=" ">
<path fill="none" stroke="#63b8ff" d="M241.76,-109.98C251.77,-102.07 266.89,-90.11 278.93,-80.58"/>
<polygon fill="#63b8ff" stroke="#63b8ff" points="281.37,-83.12 287.04,-74.17 277.03,-77.63 281.37,-83.12"/>
</a>
</g>
</g>
<!-- Node9&#45;&gt;Node8 -->
<g id="edge15_Node000009_Node000008" class="edge">
<title>Node9&#45;&gt;Node8</title>
<g id="a_edge15_Node000009_Node000008"><a xlink:title=" ">
<path fill="none" stroke="#63b8ff" d="M224.06,-109.75C218.13,-102.26 209.43,-91.28 202.18,-82.13"/>
<polygon fill="#63b8ff" stroke="#63b8ff" points="204.76,-79.75 195.81,-74.09 199.27,-84.1 204.76,-79.75"/>
</a>
</g>
</g>
</g>
</svg>
