<?xml version="1.0" encoding="UTF-8" standalone="no"?>
<!DOCTYPE svg PUBLIC "-//W3C//DTD SVG 1.1//EN"
 "http://www.w3.org/Graphics/SVG/1.1/DTD/svg11.dtd">
<!-- Generated by graphviz version 2.43.0 (0)
 -->
<!-- Title: include/mcpp/util.h Pages: 1 -->
<svg width="306pt" height="140pt"
 viewBox="0.00 0.00 305.50 140.00" xmlns="http://www.w3.org/2000/svg" xmlns:xlink="http://www.w3.org/1999/xlink">
<g id="graph0" class="graph" transform="scale(1 1) rotate(0) translate(4 136)">
<title>include/mcpp/util.h</title>
<polygon fill="white" stroke="transparent" points="-4,4 -4,-136 301.5,-136 301.5,4 -4,4"/>
<!-- Node1 -->
<g id="node1" class="node">
<title>Node1</title>
<g id="a_node1"><a xlink:title="Coordinate class.">
<polygon fill="#bfbfbf" stroke="black" points="80,-112.5 80,-131.5 190,-131.5 190,-112.5 80,-112.5"/>
<text text-anchor="middle" x="135" y="-119.5" font-family="Helvetica,sans-Serif" font-size="10.00">include/mcpp/util.h</text>
</a>
</g>
</g>
<!-- Node2 -->
<g id="node2" class="node">
<title>Node2</title>
<g id="a_node2"><a xlink:href="block_8h.html" target="_top" xlink:title="BlockType class.">
<polygon fill="white" stroke="black" points="0,-56.5 0,-75.5 52,-75.5 52,-56.5 0,-56.5"/>
<text text-anchor="middle" x="26" y="-63.5" font-family="Helvetica,sans-Serif" font-size="10.00">block.h</text>
</a>
</g>
</g>
<!-- Node1&#45;&gt;Node2 -->
<g id="edge1" class="edge">
<title>Node1&#45;&gt;Node2</title>
<path fill="none" stroke="midnightblue" d="M117.49,-112.32C99.93,-103.62 72.67,-90.12 52.47,-80.11"/>
<polygon fill="midnightblue" stroke="midnightblue" points="53.98,-76.96 43.47,-75.65 50.88,-83.23 53.98,-76.96"/>
</g>
<!-- Node3 -->
<g id="node3" class="node">
<title>Node3</title>
<g id="a_node3"><a xlink:title=" ">
<polygon fill="white" stroke="#bfbfbf" points="24.5,-0.5 24.5,-19.5 81.5,-19.5 81.5,-0.5 24.5,-0.5"/>
<text text-anchor="middle" x="53" y="-7.5" font-family="Helvetica,sans-Serif" font-size="10.00">ostream</text>
</a>
</g>
</g>
<!-- Node1&#45;&gt;Node3 -->
<g id="edge5" class="edge">
<title>Node1&#45;&gt;Node3</title>
<path fill="none" stroke="midnightblue" d="M128.2,-112.44C121.08,-103.44 109.62,-88.83 100,-76 87.92,-59.89 74.48,-41.24 65.09,-28.06"/>
<polygon fill="midnightblue" stroke="midnightblue" points="67.94,-26.02 59.29,-19.9 62.23,-30.08 67.94,-26.02"/>
</g>
<!-- Node4 -->
<g id="node4" class="node">
<title>Node4</title>
<g id="a_node4"><a xlink:title=" ">
<polygon fill="white" stroke="#bfbfbf" points="108.5,-56.5 108.5,-75.5 161.5,-75.5 161.5,-56.5 108.5,-56.5"/>
<text text-anchor="middle" x="135" y="-63.5" font-family="Helvetica,sans-Serif" font-size="10.00">cstddef</text>
</a>
</g>
</g>
<!-- Node1&#45;&gt;Node4 -->
<g id="edge3" class="edge">
<title>Node1&#45;&gt;Node4</title>
<path fill="none" stroke="midnightblue" d="M135,-112.08C135,-105.01 135,-94.86 135,-85.99"/>
<polygon fill="midnightblue" stroke="midnightblue" points="138.5,-85.75 135,-75.75 131.5,-85.75 138.5,-85.75"/>
</g>
<!-- Node5 -->
<g id="node5" class="node">
<title>Node5</title>
<g id="a_node5"><a xlink:title=" ">
<polygon fill="white" stroke="#bfbfbf" points="179.5,-56.5 179.5,-75.5 232.5,-75.5 232.5,-56.5 179.5,-56.5"/>
<text text-anchor="middle" x="206" y="-63.5" font-family="Helvetica,sans-Serif" font-size="10.00">iterator</text>
</a>
</g>
</g>
<!-- Node1&#45;&gt;Node5 -->
<g id="edge4" class="edge">
<title>Node1&#45;&gt;Node5</title>
<path fill="none" stroke="midnightblue" d="M146.41,-112.32C157.11,-104.18 173.34,-91.84 186.16,-82.09"/>
<polygon fill="midnightblue" stroke="midnightblue" points="188.54,-84.67 194.39,-75.83 184.31,-79.1 188.54,-84.67"/>
</g>
<!-- Node6 -->
<g id="node6" class="node">
<title>Node6</title>
<g id="a_node6"><a xlink:title=" ">
<polygon fill="white" stroke="#bfbfbf" points="250.5,-56.5 250.5,-75.5 297.5,-75.5 297.5,-56.5 250.5,-56.5"/>
<text text-anchor="middle" x="274" y="-63.5" font-family="Helvetica,sans-Serif" font-size="10.00">vector</text>
</a>
</g>
</g>
<!-- Node1&#45;&gt;Node6 -->
<g id="edge6" class="edge">
<title>Node1&#45;&gt;Node6</title>
<path fill="none" stroke="midnightblue" d="M157.02,-112.44C180.1,-103.48 216.56,-89.31 242.64,-79.18"/>
<polygon fill="midnightblue" stroke="midnightblue" points="244.02,-82.4 252.08,-75.52 241.49,-75.88 244.02,-82.4"/>
</g>
<!-- Node2&#45;&gt;Node3 -->
<g id="edge2" class="edge">
<title>Node2&#45;&gt;Node3</title>
<path fill="none" stroke="midnightblue" d="M30.46,-56.08C34.15,-48.69 39.52,-37.95 44.09,-28.81"/>
<polygon fill="midnightblue" stroke="midnightblue" points="47.28,-30.26 48.62,-19.75 41.02,-27.13 47.28,-30.26"/>
</g>
</g>
</svg>
