<?xml version="1.0" encoding="UTF-8" standalone="no"?>
<!DOCTYPE svg PUBLIC "-//W3C//DTD SVG 1.1//EN"
 "http://www.w3.org/Graphics/SVG/1.1/DTD/svg11.dtd">
<!-- Generated by graphviz version 2.43.0 (0)
 -->
<!-- Title: include/mcpp/util.h Pages: 1 -->
<svg width="164pt" height="140pt"
 viewBox="0.00 0.00 163.50 140.00" xmlns="http://www.w3.org/2000/svg" xmlns:xlink="http://www.w3.org/1999/xlink">
<g id="graph0" class="graph" transform="scale(1 1) rotate(0) translate(4 136)">
<title>include/mcpp/util.h</title>
<polygon fill="white" stroke="transparent" points="-4,4 -4,-136 159.5,-136 159.5,4 -4,4"/>
<!-- Node1 -->
<g id="node1" class="node">
<title>Node1</title>
<g id="a_node1"><a xlink:title="Coordinate class.">
<polygon fill="#bfbfbf" stroke="black" points="25,-112.5 25,-131.5 135,-131.5 135,-112.5 25,-112.5"/>
<text text-anchor="middle" x="80" y="-119.5" font-family="Helvetica,sans-Serif" font-size="10.00">include/mcpp/util.h</text>
</a>
</g>
</g>
<!-- Node2 -->
<g id="node2" class="node">
<title>Node2</title>
<g id="a_node2"><a xlink:href="block_8h.html" target="_top" xlink:title="BlockType class.">
<polygon fill="white" stroke="black" points="0,-56.5 0,-75.5 52,-75.5 52,-56.5 0,-56.5"/>
<text text-anchor="middle" x="26" y="-63.5" font-family="Helvetica,sans-Serif" font-size="10.00">block.h</text>
</a>
</g>
</g>
<!-- Node1&#45;&gt;Node2 -->
<g id="edge1" class="edge">
<title>Node1&#45;&gt;Node2</title>
<path fill="none" stroke="midnightblue" d="M71.08,-112.08C63.22,-104.22 51.57,-92.57 42.08,-83.08"/>
<polygon fill="midnightblue" stroke="midnightblue" points="44.3,-80.35 34.75,-75.75 39.35,-85.3 44.3,-80.35"/>
</g>
<!-- Node3 -->
<g id="node3" class="node">
<title>Node3</title>
<g id="a_node3"><a xlink:title=" ">
<polygon fill="white" stroke="#bfbfbf" points="24.5,-0.5 24.5,-19.5 81.5,-19.5 81.5,-0.5 24.5,-0.5"/>
<text text-anchor="middle" x="53" y="-7.5" font-family="Helvetica,sans-Serif" font-size="10.00">ostream</text>
</a>
</g>
</g>
<!-- Node1&#45;&gt;Node3 -->
<g id="edge3" class="edge">
<title>Node1&#45;&gt;Node3</title>
<path fill="none" stroke="midnightblue" d="M77.88,-112.37C73.52,-94.62 63.47,-53.67 57.56,-29.6"/>
<polygon fill="midnightblue" stroke="midnightblue" points="60.89,-28.47 55.11,-19.59 54.09,-30.14 60.89,-28.47"/>
</g>
<!-- Node4 -->
<g id="node4" class="node">
<title>Node4</title>
<g id="a_node4"><a xlink:title=" ">
<polygon fill="white" stroke="#bfbfbf" points="108.5,-56.5 108.5,-75.5 155.5,-75.5 155.5,-56.5 108.5,-56.5"/>
<text text-anchor="middle" x="132" y="-63.5" font-family="Helvetica,sans-Serif" font-size="10.00">vector</text>
</a>
</g>
</g>
<!-- Node1&#45;&gt;Node4 -->
<g id="edge4" class="edge">
<title>Node1&#45;&gt;Node4</title>
<path fill="none" stroke="midnightblue" d="M88.59,-112.08C96.16,-104.22 107.38,-92.57 116.51,-83.08"/>
<polygon fill="midnightblue" stroke="midnightblue" points="119.16,-85.38 123.57,-75.75 114.12,-80.53 119.16,-85.38"/>
</g>
<!-- Node2&#45;&gt;Node3 -->
<g id="edge2" class="edge">
<title>Node2&#45;&gt;Node3</title>
<path fill="none" stroke="midnightblue" d="M30.46,-56.08C34.15,-48.69 39.52,-37.95 44.09,-28.81"/>
<polygon fill="midnightblue" stroke="midnightblue" points="47.28,-30.26 48.62,-19.75 41.02,-27.13 47.28,-30.26"/>
</g>
</g>
</svg>
